<svg xmlns="http://www.w3.org/2000/svg" height="56.693" width="56.693"><path d="M3.6 29.355c0 9.742 5.663 18.17 13.878 22.156L5.723 19.332A24.51 24.51 0 0 0 3.59 29.355zm41.246-1.244c0-3.043-1.096-5.152-2.03-6.79-1.248-2.03-2.416-3.745-2.416-5.776 0-2.264 1.71-4.37 4.135-4.37.105 0 .21.014.316.02C40.46 7.183 34.625 4.73 28.215 4.73c-8.605 0-16.172 4.416-20.573 11.1l1.583.03c2.577 0 6.563-.316 6.563-.316 1.324-.074 1.48 1.87.154 2.03 0 0-1.332.154-2.817.234l8.968 26.668 5.39-16.158-3.838-10.5c-1.326-.08-2.582-.234-2.582-.234-1.328-.08-1.17-2.105.158-2.03 0 0 4.064.316 6.482.316 2.574 0 6.566-.316 6.566-.316 1.322-.074 1.48 1.87.152 2.03 0 0-1.33.154-2.816.234l8.9 26.465 2.457-8.203c1.248-3.2 1.875-5.85 1.875-7.96zm-16.2 3.4l-7.39 21.47c2.205.648 4.535 1 6.957 1a24.55 24.55 0 0 0 8.176-1.398c-.066-.105-.127-.215-.176-.336L28.646 31.5zm21.172-13.97c.11.787.17 1.627.17 2.535 0 2.497-.47 5.305-1.875 8.82l-7.52 21.742c7.318-4.266 12.24-12.195 12.24-21.28.001-4.284-1.093-8.307-3.015-11.817z"/></svg>